# xmcd
#
# Track frame offsets:
#     150
#     17890
#     41041
#     54264
#     67814
#     82712
#     99882
#     114920
#     141975
#
# Disc length: 2230
#
# Revision: 0
# Processed by: cddbd v1.5.1PL0 Copyright (c) Steve Scherf et al.
# Submitted via: BonkEnc v1.0beta3
#
DISCID=6408b409
DTITLE=Swinging Posicle - Orange, Change, Wild Sweet
DYEAR=1900
DGENRE=Blues
TTITLE0=オレンジ
TTITLE1=青い空
TTITLE2=Change
TTITLE3=JULIANA
TTITLE4=Outerspace
TTITLE5=Falldown
TTITLE6=Wild Blue
TTITLE7=Wild Blue (Wild Blue Vices Version)
TTITLE8=Life On The Outer Space
EXTD=
EXTT0=
EXTT1=
EXTT2=
EXTT3=
EXTT4=
EXTT5=
EXTT6=
EXTT7=
EXTT8=
PLAYORDER=
